<svg width="388" height="112" viewBox="0 0 388 112" fill="none" xmlns="http://www.w3.org/2000/svg">
<g clip-path="url(#clip0_246_1193)">
<path d="M106.667 51.9346H96.9637L109.567 15.4482H121.587L134.191 51.9346H124.487L115.714 24.6411H115.422L106.667 51.9346ZM105.372 37.5752H125.655V44.274H105.372V37.5752Z" fill="#3E3B3B"/>
<path d="M157.315 40.1228V24.5698H166.216V51.9345H157.717V46.8393H157.425C156.805 48.5141 155.747 49.8442 154.251 50.83C152.768 51.804 150.974 52.291 148.87 52.291C146.961 52.291 145.283 51.8633 143.836 51.0082C142.389 50.1529 141.264 48.9594 140.462 47.4273C139.659 45.8832 139.252 44.0779 139.24 42.0113V24.5698H148.159V40.301C148.171 41.7856 148.573 42.9556 149.363 43.8107C150.153 44.6657 151.229 45.0934 152.591 45.0934C153.479 45.0934 154.275 44.9034 154.981 44.5232C155.698 44.1314 156.264 43.5671 156.677 42.8308C157.103 42.0826 157.315 41.1798 157.315 40.1228Z" fill="#3E3B3B"/>
<path d="M188.734 24.5699V30.9834H171.06V24.5699H188.734ZM174.763 18.0137L183.937 15.4482L183.682 43.3297C183.682 43.8642 183.767 44.2977 183.937 44.6302C184.12 44.951 184.381 45.1825 184.722 45.325C185.062 45.4557 185.469 45.521 185.944 45.521C186.284 45.521 186.643 45.4913 187.02 45.432C187.409 45.3607 187.701 45.3013 187.895 45.2538L189.245 51.5428C188.82 51.6615 188.218 51.81 187.439 51.988C186.673 52.1663 185.755 52.2791 184.685 52.3266C182.594 52.4216 180.8 52.184 179.304 51.614C177.821 51.032 176.684 50.1292 175.894 48.9059C175.115 47.6826 174.739 46.1445 174.763 44.2917V18.0137Z" fill="#3E3B3B"/>
<path d="M207.09 52.4513C204.146 52.4513 201.617 51.8633 199.501 50.6875C197.397 49.4999 195.774 47.8489 194.631 45.7348C193.5 43.6087 192.935 41.1444 192.935 38.3413C192.935 35.5264 193.5 33.062 194.631 30.9479C195.774 28.8218 197.397 27.171 199.501 25.9952C201.617 24.8074 204.146 24.2136 207.09 24.2136C210.032 24.2136 212.555 24.8074 214.659 25.9952C216.774 27.171 218.398 28.8218 219.529 30.9479C220.672 33.062 221.243 35.5264 221.243 38.3413C221.243 41.1444 220.672 43.6087 219.529 45.7348C218.398 47.8489 216.774 49.4999 214.659 50.6875C212.555 51.8633 210.032 52.4513 207.09 52.4513ZM207.144 45.8773C208.213 45.8773 209.12 45.5566 209.862 44.9153C210.603 44.274 211.169 43.3832 211.558 42.2429C211.96 41.1028 212.161 39.7843 212.161 38.288C212.161 36.7677 211.96 35.4374 211.558 34.2973C211.169 33.157 210.603 32.2662 209.862 31.6249C209.12 30.9834 208.213 30.6629 207.144 30.6629C206.038 30.6629 205.101 30.9834 204.335 31.6249C203.58 32.2662 203.003 33.157 202.602 34.2973C202.214 35.4374 202.019 36.7677 202.019 38.288C202.019 39.7843 202.214 41.1028 202.602 42.2429C203.003 43.3832 203.58 44.274 204.335 44.9153C205.101 45.5566 206.038 45.8773 207.144 45.8773Z" fill="#3E3B3B"/>
<path d="M226.839 51.9346V24.5699H235.321V29.5939H235.632C236.215 27.9311 237.199 26.6187 238.585 25.6567C239.971 24.6946 241.626 24.2136 243.546 24.2136C245.492 24.2136 247.158 24.7004 248.544 25.6745C249.932 26.6483 250.812 27.9548 251.189 29.5939H251.482C252.005 27.9668 253.026 26.6662 254.545 25.6922C256.065 24.7064 257.86 24.2136 259.925 24.2136C262.578 24.2136 264.73 25.0449 266.382 26.7077C268.037 28.3586 268.863 30.6272 268.863 33.5133V51.9346H259.945V35.5086C259.945 34.1428 259.586 33.1035 258.867 32.391C258.151 31.6664 257.221 31.3042 256.078 31.3042C254.85 31.3042 253.883 31.6962 253.177 32.48C252.484 33.252 252.138 34.2913 252.138 35.5977V51.9346H243.566V35.4196C243.566 34.1488 243.212 33.145 242.508 32.4087C241.801 31.6724 240.873 31.3042 239.716 31.3042C238.939 31.3042 238.251 31.4882 237.655 31.8565C237.06 32.2127 236.591 32.7235 236.251 33.3885C235.923 34.0538 235.759 34.8376 235.759 35.7404V51.9346H226.839Z" fill="#3E3B3B"/>
<path d="M283.315 52.3978C281.528 52.3978 279.941 52.1068 278.555 51.5248C277.181 50.931 276.092 50.0402 275.289 48.8525C274.499 47.6529 274.104 46.1506 274.104 44.3452C274.104 42.8249 274.378 41.5421 274.924 40.4971C275.472 39.4518 276.227 38.6027 277.186 37.9495C278.148 37.2962 279.254 36.8032 280.507 36.4707C281.759 36.1262 283.097 35.8946 284.52 35.7759C286.112 35.6334 287.394 35.4849 288.367 35.3306C289.34 35.1641 290.046 34.9326 290.483 34.6356C290.932 34.3268 291.158 33.8933 291.158 33.3351V33.246C291.158 32.3315 290.836 31.6249 290.191 31.126C289.546 30.6272 288.678 30.3777 287.583 30.3777C286.404 30.3777 285.456 30.6272 284.738 31.126C284.02 31.6249 283.564 32.3137 283.369 33.1925L275.144 32.9075C275.387 31.2447 276.013 29.7601 277.022 28.4536C278.043 27.1353 279.443 26.102 281.217 25.3537C283.004 24.5937 285.151 24.2136 287.657 24.2136C289.444 24.2136 291.091 24.4214 292.598 24.8372C294.108 25.2409 295.42 25.8347 296.538 26.6187C297.658 27.3908 298.521 28.3408 299.129 29.4691C299.748 30.5974 300.059 31.8862 300.059 33.3351V51.9346H291.67V48.1221H291.45C290.952 49.0485 290.313 49.8325 289.535 50.4738C288.768 51.1151 287.863 51.5961 286.817 51.9168C285.784 52.2376 284.616 52.3978 283.315 52.3978ZM286.07 46.6969C287.029 46.6969 287.894 46.5068 288.66 46.1268C289.438 45.7468 290.058 45.2241 290.519 44.559C290.983 43.882 291.212 43.0982 291.212 42.2074V39.6063C290.958 39.7368 290.647 39.8556 290.282 39.9626C289.931 40.0695 289.541 40.1703 289.116 40.2653C288.689 40.3604 288.251 40.4436 287.801 40.5148C287.352 40.5861 286.921 40.6514 286.508 40.7108C285.668 40.8414 284.95 41.0434 284.356 41.3166C283.771 41.5896 283.321 41.9461 283.004 42.3854C282.701 42.8132 282.549 43.3237 282.549 43.9177C282.549 44.8203 282.877 45.5091 283.533 45.9843C284.203 46.4593 285.049 46.6969 286.07 46.6969Z" fill="#3E3B3B"/>
<path d="M340.728 52.4513C337.797 52.4513 335.267 51.8871 333.14 50.7588C331.024 49.6187 329.395 47.9974 328.252 45.8951C327.121 43.781 326.555 41.2691 326.555 38.3592C326.555 35.5324 327.126 33.062 328.269 30.9479C329.412 28.8218 331.024 27.171 333.103 25.9952C335.182 24.8074 337.633 24.2136 340.454 24.2136C342.448 24.2136 344.272 24.5164 345.926 25.1222C347.579 25.7279 349.007 26.6245 350.212 27.8123C351.416 29.0001 352.352 30.4669 353.02 32.2127C353.69 33.9468 354.024 35.9362 354.024 38.181V40.3546H329.675V35.2949H345.725C345.712 34.3685 345.488 33.543 345.05 32.8185C344.612 32.094 344.009 31.5299 343.245 31.126C342.49 30.7104 341.621 30.5024 340.635 30.5024C339.639 30.5024 338.745 30.7222 337.954 31.1617C337.164 31.5892 336.539 32.1772 336.076 32.9255C335.614 33.6618 335.371 34.4991 335.346 35.4374V40.5861C335.346 41.7026 335.572 42.6824 336.022 43.5257C336.471 44.357 337.11 45.0043 337.936 45.4676C338.763 45.9308 339.749 46.1623 340.892 46.1623C341.681 46.1623 342.399 46.0556 343.044 45.8418C343.689 45.628 344.241 45.3133 344.704 44.8975C345.166 44.4818 345.511 43.971 345.743 43.3654L353.933 43.597C353.592 45.3903 352.845 46.9521 351.688 48.2824C350.545 49.6007 349.044 50.6282 347.185 51.3645C345.324 52.0891 343.172 52.4513 340.728 52.4513Z" fill="#3E3B3B"/>
<path d="M369.839 52.3266C367.772 52.3266 365.894 51.804 364.203 50.7588C362.512 49.7137 361.162 48.1459 360.153 46.0555C359.145 43.9652 358.639 41.3701 358.639 38.27C358.639 35.0513 359.163 32.4027 360.209 30.3244C361.253 28.2458 362.622 26.7077 364.313 25.71C366.015 24.7124 367.845 24.2136 369.803 24.2136C371.274 24.2136 372.532 24.4629 373.578 24.9619C374.623 25.4487 375.487 26.0782 376.167 26.8502C376.848 27.6223 377.366 28.424 377.719 29.2553H377.9V15.4482H386.821V51.9346H377.991V47.4986H377.719C377.341 48.3419 376.806 49.1317 376.113 49.868C375.42 50.6045 374.551 51.1983 373.505 51.6495C372.47 52.1008 371.248 52.3266 369.839 52.3266ZM372.939 45.5388C374.022 45.5388 374.945 45.242 375.711 44.648C376.478 44.0422 377.068 43.1932 377.482 42.1004C377.895 41.0078 378.101 39.725 378.101 38.2522C378.101 36.7557 377.895 35.4671 377.482 34.3863C377.08 33.3055 376.489 32.474 375.711 31.892C374.945 31.3101 374.022 31.0191 372.939 31.0191C371.833 31.0191 370.897 31.3159 370.131 31.9099C369.364 32.5037 368.781 33.341 368.38 34.4218C367.99 35.5026 367.795 36.7794 367.795 38.2522C367.795 39.725 367.996 41.0078 368.397 42.1004C368.799 43.1932 369.376 44.0422 370.131 44.648C370.897 45.242 371.833 45.5388 372.939 45.5388Z" fill="#3E3B3B"/>
<path d="M106.667 51.9346H96.9637L109.567 15.4482H121.587L134.191 51.9346H124.487L115.714 24.6411H115.422L106.667 51.9346ZM105.372 37.5752H125.655V44.274H105.372V37.5752Z" stroke="#3E3B3B" stroke-width="0.5"/>
<path d="M157.315 40.1228V24.5698H166.216V51.9345H157.717V46.8393H157.425C156.805 48.5141 155.747 49.8442 154.251 50.83C152.768 51.804 150.974 52.291 148.87 52.291C146.961 52.291 145.283 51.8633 143.836 51.0082C142.389 50.1529 141.264 48.9594 140.462 47.4273C139.659 45.8832 139.252 44.0779 139.24 42.0113V24.5698H148.159V40.301C148.171 41.7856 148.573 42.9556 149.363 43.8107C150.153 44.6657 151.229 45.0934 152.591 45.0934C153.479 45.0934 154.275 44.9034 154.981 44.5232C155.698 44.1314 156.264 43.5671 156.677 42.8308C157.103 42.0826 157.315 41.1798 157.315 40.1228Z" stroke="#3E3B3B" stroke-width="0.5"/>
<path d="M188.734 24.5699V30.9834H171.06V24.5699H188.734ZM174.763 18.0137L183.937 15.4482L183.682 43.3297C183.682 43.8642 183.767 44.2977 183.937 44.6302C184.12 44.951 184.381 45.1825 184.722 45.325C185.062 45.4557 185.469 45.521 185.944 45.521C186.284 45.521 186.643 45.4913 187.02 45.432C187.409 45.3607 187.701 45.3013 187.895 45.2538L189.245 51.5428C188.82 51.6615 188.218 51.81 187.439 51.988C186.673 52.1663 185.755 52.2791 184.685 52.3266C182.594 52.4216 180.8 52.184 179.304 51.614C177.821 51.032 176.684 50.1292 175.894 48.9059C175.115 47.6826 174.739 46.1445 174.763 44.2917V18.0137Z" stroke="#3E3B3B" stroke-width="0.5"/>
<path d="M207.09 52.4513C204.146 52.4513 201.617 51.8633 199.501 50.6875C197.397 49.4999 195.774 47.8489 194.631 45.7348C193.5 43.6087 192.935 41.1444 192.935 38.3413C192.935 35.5264 193.5 33.062 194.631 30.9479C195.774 28.8218 197.397 27.171 199.501 25.9952C201.617 24.8074 204.146 24.2136 207.09 24.2136C210.032 24.2136 212.555 24.8074 214.659 25.9952C216.774 27.171 218.398 28.8218 219.529 30.9479C220.672 33.062 221.243 35.5264 221.243 38.3413C221.243 41.1444 220.672 43.6087 219.529 45.7348C218.398 47.8489 216.774 49.4999 214.659 50.6875C212.555 51.8633 210.032 52.4513 207.09 52.4513ZM207.144 45.8773C208.213 45.8773 209.12 45.5566 209.862 44.9153C210.603 44.274 211.169 43.3832 211.558 42.2429C211.96 41.1028 212.161 39.7843 212.161 38.288C212.161 36.7677 211.96 35.4374 211.558 34.2973C211.169 33.157 210.603 32.2662 209.862 31.6249C209.12 30.9834 208.213 30.6629 207.144 30.6629C206.038 30.6629 205.101 30.9834 204.335 31.6249C203.58 32.2662 203.003 33.157 202.602 34.2973C202.214 35.4374 202.019 36.7677 202.019 38.288C202.019 39.7843 202.214 41.1028 202.602 42.2429C203.003 43.3832 203.58 44.274 204.335 44.9153C205.101 45.5566 206.038 45.8773 207.144 45.8773Z" stroke="#3E3B3B" stroke-width="0.5"/>
<path d="M226.839 51.9346V24.5699H235.321V29.5939H235.632C236.215 27.9311 237.199 26.6187 238.585 25.6567C239.971 24.6946 241.626 24.2136 243.546 24.2136C245.492 24.2136 247.158 24.7004 248.544 25.6745C249.932 26.6483 250.812 27.9548 251.189 29.5939H251.482C252.005 27.9668 253.026 26.6662 254.545 25.6922C256.065 24.7064 257.86 24.2136 259.925 24.2136C262.578 24.2136 264.73 25.0449 266.382 26.7077C268.037 28.3586 268.863 30.6272 268.863 33.5133V51.9346H259.945V35.5086C259.945 34.1428 259.586 33.1035 258.867 32.391C258.151 31.6664 257.221 31.3042 256.078 31.3042C254.85 31.3042 253.883 31.6962 253.177 32.48C252.484 33.252 252.138 34.2913 252.138 35.5977V51.9346H243.566V35.4196C243.566 34.1488 243.212 33.145 242.508 32.4087C241.801 31.6724 240.873 31.3042 239.716 31.3042C238.939 31.3042 238.251 31.4882 237.655 31.8565C237.06 32.2127 236.591 32.7235 236.251 33.3885C235.923 34.0538 235.759 34.8376 235.759 35.7404V51.9346H226.839Z" stroke="#3E3B3B" stroke-width="0.5"/>
<path d="M283.315 52.3978C281.528 52.3978 279.941 52.1068 278.555 51.5248C277.181 50.931 276.092 50.0402 275.289 48.8525C274.499 47.6529 274.104 46.1506 274.104 44.3452C274.104 42.8249 274.378 41.5421 274.924 40.4971C275.472 39.4518 276.227 38.6027 277.186 37.9495C278.148 37.2962 279.254 36.8032 280.507 36.4707C281.759 36.1262 283.097 35.8946 284.52 35.7759C286.112 35.6334 287.394 35.4849 288.367 35.3306C289.34 35.1641 290.046 34.9326 290.483 34.6356C290.932 34.3268 291.158 33.8933 291.158 33.3351V33.246C291.158 32.3315 290.836 31.6249 290.191 31.126C289.546 30.6272 288.678 30.3777 287.583 30.3777C286.404 30.3777 285.456 30.6272 284.738 31.126C284.02 31.6249 283.564 32.3137 283.369 33.1925L275.144 32.9075C275.387 31.2447 276.013 29.7601 277.022 28.4536C278.043 27.1353 279.443 26.102 281.217 25.3537C283.004 24.5937 285.151 24.2136 287.657 24.2136C289.444 24.2136 291.091 24.4214 292.598 24.8372C294.108 25.2409 295.42 25.8347 296.538 26.6187C297.658 27.3908 298.521 28.3408 299.129 29.4691C299.748 30.5974 300.059 31.8862 300.059 33.3351V51.9346H291.67V48.1221H291.45C290.952 49.0485 290.313 49.8325 289.535 50.4738C288.768 51.1151 287.863 51.5961 286.817 51.9168C285.784 52.2376 284.616 52.3978 283.315 52.3978ZM286.07 46.6969C287.029 46.6969 287.894 46.5068 288.66 46.1268C289.438 45.7468 290.058 45.2241 290.519 44.559C290.983 43.882 291.212 43.0982 291.212 42.2074V39.6063C290.958 39.7368 290.647 39.8556 290.282 39.9626C289.931 40.0695 289.541 40.1703 289.116 40.2653C288.689 40.3604 288.251 40.4436 287.801 40.5148C287.352 40.5861 286.921 40.6514 286.508 40.7108C285.668 40.8414 284.95 41.0434 284.356 41.3166C283.771 41.5896 283.321 41.9461 283.004 42.3854C282.701 42.8132 282.549 43.3237 282.549 43.9177C282.549 44.8203 282.877 45.5091 283.533 45.9843C284.203 46.4593 285.049 46.6969 286.07 46.6969Z" stroke="#3E3B3B" stroke-width="0.5"/>
<path d="M340.728 52.4513C337.797 52.4513 335.267 51.8871 333.14 50.7588C331.024 49.6187 329.395 47.9974 328.252 45.8951C327.121 43.781 326.555 41.2691 326.555 38.3592C326.555 35.5324 327.126 33.062 328.269 30.9479C329.412 28.8218 331.024 27.171 333.103 25.9952C335.182 24.8074 337.633 24.2136 340.454 24.2136C342.448 24.2136 344.272 24.5164 345.926 25.1222C347.579 25.7279 349.007 26.6245 350.212 27.8123C351.416 29.0001 352.352 30.4669 353.02 32.2127C353.69 33.9468 354.024 35.9362 354.024 38.181V40.3546H329.675V35.2949H345.725C345.712 34.3685 345.488 33.543 345.05 32.8185C344.612 32.094 344.009 31.5299 343.245 31.126C342.49 30.7104 341.621 30.5024 340.635 30.5024C339.639 30.5024 338.745 30.7222 337.954 31.1617C337.164 31.5892 336.539 32.1772 336.076 32.9255C335.614 33.6618 335.371 34.4991 335.346 35.4374V40.5861C335.346 41.7026 335.572 42.6824 336.022 43.5257C336.471 44.357 337.11 45.0043 337.936 45.4676C338.763 45.9308 339.749 46.1623 340.892 46.1623C341.681 46.1623 342.399 46.0556 343.044 45.8418C343.689 45.628 344.241 45.3133 344.704 44.8975C345.166 44.4818 345.511 43.971 345.743 43.3654L353.933 43.597C353.592 45.3903 352.845 46.9521 351.688 48.2824C350.545 49.6007 349.044 50.6282 347.185 51.3645C345.324 52.0891 343.172 52.4513 340.728 52.4513Z" stroke="#3E3B3B" stroke-width="0.5"/>
<path d="M369.839 52.3266C367.772 52.3266 365.894 51.804 364.203 50.7588C362.512 49.7137 361.162 48.1459 360.153 46.0555C359.145 43.9652 358.639 41.3701 358.639 38.27C358.639 35.0513 359.163 32.4027 360.209 30.3244C361.253 28.2458 362.622 26.7077 364.313 25.71C366.015 24.7124 367.845 24.2136 369.803 24.2136C371.274 24.2136 372.532 24.4629 373.578 24.9619C374.623 25.4487 375.487 26.0782 376.167 26.8502C376.848 27.6223 377.366 28.424 377.719 29.2553H377.9V15.4482H386.821V51.9346H377.991V47.4986H377.719C377.341 48.3419 376.806 49.1317 376.113 49.868C375.42 50.6045 374.551 51.1983 373.505 51.6495C372.47 52.1008 371.248 52.3266 369.839 52.3266ZM372.939 45.5388C374.022 45.5388 374.945 45.242 375.711 44.648C376.478 44.0422 377.068 43.1932 377.482 42.1004C377.895 41.0078 378.101 39.725 378.101 38.2522C378.101 36.7557 377.895 35.4671 377.482 34.3863C377.08 33.3055 376.489 32.474 375.711 31.892C374.945 31.3101 374.022 31.0191 372.939 31.0191C371.833 31.0191 370.897 31.3159 370.131 31.9099C369.364 32.5037 368.781 33.341 368.38 34.4218C367.99 35.5026 367.795 36.7794 367.795 38.2522C367.795 39.725 367.996 41.0078 368.397 42.1004C368.799 43.1932 369.376 44.0422 370.131 44.648C370.897 45.242 371.833 45.5388 372.939 45.5388Z" stroke="#3E3B3B" stroke-width="0.5"/>
<path d="M321.185 24.5699V30.9834H303.511V24.5699H321.185ZM307.213 18.0137L316.388 15.4482L316.133 43.3297C316.133 43.8642 316.218 44.2977 316.388 44.6302C316.571 44.951 316.832 45.1825 317.172 45.325C317.513 45.4557 317.921 45.521 318.394 45.521C318.735 45.521 319.094 45.4913 319.471 45.432C319.861 45.3607 320.152 45.3013 320.347 45.2538L321.696 51.5428C321.27 51.6615 320.668 51.81 319.89 51.988C319.123 52.1663 318.206 52.2791 317.137 52.3266C315.044 52.4216 313.251 52.184 311.755 51.614C310.273 51.032 309.136 50.1292 308.344 48.9059C307.566 47.6826 307.19 46.1445 307.213 44.2917V18.0137Z" fill="#3E3B3B" stroke="#3E3B3B" stroke-width="0.5"/>
<path d="M213.794 69.915V63.7241H222.72V69.915H213.794Z" fill="#3E3B3B" stroke="#3E3B3B" stroke-width="0.5"/>
<path d="M96.9637 70.8859V63.7241H128.537V70.8859H117.21V100.21H108.309V70.8859H96.9637Z" fill="#3E3B3B"/>
<path d="M143.006 100.727C140.076 100.727 137.547 100.163 135.419 99.0347C133.303 97.8946 131.673 96.2733 130.53 94.171C129.4 92.0569 128.834 89.545 128.834 86.6351C128.834 83.8083 129.406 81.3379 130.549 79.2238C131.692 77.0977 133.303 75.4469 135.382 74.2711C137.461 73.0833 139.912 72.4895 142.733 72.4895C144.727 72.4895 146.551 72.7923 148.205 73.3981C149.858 74.0038 151.287 74.9004 152.491 76.0882C153.695 77.276 154.631 78.7428 155.3 80.4886C155.969 82.2227 156.303 84.212 156.303 86.4569V88.6304H131.953V83.5707H148.004C147.992 82.6444 147.767 81.8189 147.329 81.0944C146.891 80.3699 146.289 79.8058 145.523 79.4018C144.77 78.9863 143.9 78.7783 142.915 78.7783C141.918 78.7783 141.024 78.9981 140.234 79.4376C139.443 79.8651 138.817 80.4531 138.355 81.2012C137.893 81.9377 137.65 82.775 137.626 83.7133V88.862C137.626 89.9785 137.851 90.9583 138.301 91.8016C138.75 92.6329 139.389 93.2802 140.216 93.7434C141.043 94.2067 142.027 94.4382 143.17 94.4382C143.961 94.4382 144.678 94.3314 145.323 94.1177C145.967 93.9037 146.521 93.5891 146.983 93.1734C147.445 92.7576 147.791 92.2469 148.022 91.6413L156.212 91.8728C155.871 93.6662 155.124 95.228 153.968 96.5583C152.825 97.8766 151.324 98.9041 149.463 99.6404C147.603 100.365 145.45 100.727 143.006 100.727Z" fill="#3E3B3B"/>
<path d="M186.345 81.2012L178.155 81.4151C178.07 80.8449 177.839 80.3401 177.462 79.9008C177.085 79.4493 176.593 79.0991 175.985 78.8496C175.389 78.5883 174.696 78.4578 173.906 78.4578C172.872 78.4578 171.99 78.6595 171.261 79.0633C170.543 79.4673 170.191 80.0136 170.203 80.7024C170.191 81.2369 170.41 81.7002 170.86 82.092C171.322 82.484 172.142 82.7987 173.322 83.0362L178.721 84.034C181.518 84.5565 183.597 85.4236 184.959 86.6351C186.333 87.8464 187.026 89.45 187.038 91.4453C187.026 93.3219 186.454 94.955 185.324 96.3445C184.205 97.7341 182.673 98.8149 180.727 99.5869C178.782 100.347 176.556 100.727 174.052 100.727C170.051 100.727 166.895 99.9254 164.585 98.3221C162.287 96.7068 160.974 94.5452 160.645 91.8371L169.455 91.6233C169.65 92.6211 170.154 93.3812 170.969 93.9037C171.784 94.4264 172.823 94.6877 174.088 94.6877C175.231 94.6877 176.161 94.4799 176.879 94.0642C177.596 93.6484 177.961 93.0962 177.973 92.4074C177.961 91.7896 177.681 91.2968 177.134 90.9286C176.587 90.5485 175.729 90.2515 174.562 90.0378L169.674 89.1292C166.865 88.6304 164.774 87.7099 163.4 86.3678C162.026 85.0138 161.344 83.2917 161.357 81.2012C161.344 79.3723 161.843 77.8103 162.852 76.5157C163.862 75.2094 165.296 74.2116 167.157 73.5228C169.017 72.8338 171.212 72.4895 173.741 72.4895C177.535 72.4895 180.527 73.2673 182.715 74.8233C184.904 76.3672 186.114 78.4933 186.345 81.2012Z" fill="#3E3B3B"/>
<path d="M208.271 72.8458V79.2593H190.596V72.8458H208.271ZM194.299 66.2895L203.474 63.7241L203.217 91.6056C203.217 92.1401 203.302 92.5736 203.474 92.9061C203.656 93.2268 203.916 93.4584 204.258 93.6009C204.598 93.7316 205.005 93.7969 205.48 93.7969C205.82 93.7969 206.179 93.7672 206.555 93.7079C206.945 93.6366 207.236 93.5771 207.431 93.5296L208.781 99.8186C208.356 99.9374 207.754 100.086 206.976 100.264C206.209 100.442 205.291 100.555 204.221 100.602C202.129 100.697 200.335 100.46 198.841 99.8899C197.357 99.3079 196.22 98.4051 195.43 97.1818C194.651 95.9585 194.274 94.4204 194.299 92.5676V66.2895Z" fill="#3E3B3B"/>
<path d="M213.848 100.21V72.8457H222.768V100.21H213.848Z" fill="#3E3B3B"/>
<path d="M238.39 84.604V100.21H229.472V72.8458H237.954V77.8698H238.263C238.884 76.1952 239.942 74.8826 241.436 73.9326C242.932 72.9705 244.714 72.4895 246.781 72.4895C248.75 72.4895 250.459 72.923 251.907 73.7901C253.366 74.6451 254.497 75.8447 255.3 77.3887C256.115 78.9208 256.514 80.7144 256.503 82.769V100.21H247.585V84.4793C247.596 82.959 247.2 81.7714 246.397 80.9162C245.608 80.0611 244.508 79.6336 243.096 79.6336C242.16 79.6336 241.334 79.8353 240.616 80.2391C239.911 80.6311 239.363 81.1954 238.975 81.9317C238.597 82.6682 238.404 83.559 238.39 84.604Z" fill="#3E3B3B"/>
<path d="M276.111 111.042C273.449 111.042 271.17 110.68 269.272 109.956C267.374 109.231 265.886 108.24 264.803 106.98C263.72 105.721 263.07 104.296 262.852 102.705L271.297 102.242C271.455 102.8 271.747 103.287 272.171 103.702C272.61 104.118 273.175 104.439 273.868 104.664C274.573 104.89 275.401 105.003 276.349 105.003C277.845 105.003 279.078 104.647 280.051 103.934C281.037 103.233 281.53 102.004 281.53 100.246V95.436H281.219C280.866 96.2793 280.331 97.0333 279.615 97.6986C278.897 98.3636 278.003 98.8862 276.934 99.2664C275.876 99.6464 274.66 99.8364 273.285 99.8364C271.241 99.8364 269.369 99.3732 267.668 98.4469C265.977 97.5086 264.622 96.0595 263.599 94.0997C262.591 92.1281 262.085 89.5925 262.085 86.4926C262.085 83.2975 262.608 80.6669 263.655 78.6003C264.699 76.5217 266.068 74.9836 267.759 73.9859C269.461 72.9883 271.291 72.4895 273.249 72.4895C274.719 72.4895 275.978 72.7388 277.024 73.2378C278.082 73.7246 278.951 74.3541 279.632 75.1261C280.314 75.8982 280.829 76.6999 281.182 77.5312H281.437V72.8458H290.321V100.317C290.321 102.634 289.724 104.587 288.533 106.179C287.342 107.77 285.676 108.976 283.535 109.795C281.395 110.627 278.92 111.042 276.111 111.042ZM276.385 93.4941C277.468 93.4941 278.391 93.2149 279.157 92.6566C279.924 92.0984 280.514 91.2968 280.927 90.2515C281.341 89.2065 281.547 87.9534 281.547 86.4926C281.547 85.0078 281.341 83.731 280.927 82.6622C280.526 81.5814 279.935 80.7499 279.157 80.1679C278.391 79.5861 277.468 79.295 276.385 79.295C275.279 79.295 274.343 79.5918 273.577 80.1858C272.81 80.7796 272.227 81.6169 271.826 82.6977C271.436 83.7667 271.241 85.0316 271.241 86.4926C271.241 87.9534 271.442 89.2065 271.843 90.2515C272.245 91.2968 272.822 92.0984 273.577 92.6566C274.343 93.2149 275.279 93.4941 276.385 93.4941Z" fill="#3E3B3B"/>
<path d="M96.9637 70.8859V63.7241H128.537V70.8859H117.21V100.21H108.309V70.8859H96.9637Z" stroke="#3E3B3B" stroke-width="0.5"/>
<path d="M143.006 100.727C140.076 100.727 137.547 100.163 135.419 99.0347C133.303 97.8946 131.673 96.2733 130.53 94.171C129.4 92.0569 128.834 89.545 128.834 86.6351C128.834 83.8083 129.406 81.3379 130.549 79.2238C131.692 77.0977 133.303 75.4469 135.382 74.2711C137.461 73.0833 139.912 72.4895 142.733 72.4895C144.727 72.4895 146.551 72.7923 148.205 73.3981C149.858 74.0038 151.287 74.9004 152.491 76.0882C153.695 77.276 154.631 78.7428 155.3 80.4886C155.969 82.2227 156.303 84.212 156.303 86.4569V88.6304H131.953V83.5707H148.004C147.992 82.6444 147.767 81.8189 147.329 81.0944C146.891 80.3699 146.289 79.8058 145.523 79.4018C144.77 78.9863 143.9 78.7783 142.915 78.7783C141.918 78.7783 141.024 78.9981 140.234 79.4376C139.443 79.8651 138.817 80.4531 138.355 81.2012C137.893 81.9377 137.65 82.775 137.626 83.7133V88.862C137.626 89.9785 137.851 90.9583 138.301 91.8016C138.75 92.6329 139.389 93.2802 140.216 93.7434C141.043 94.2067 142.027 94.4382 143.17 94.4382C143.961 94.4382 144.678 94.3314 145.323 94.1177C145.967 93.9037 146.521 93.5891 146.983 93.1734C147.445 92.7576 147.791 92.2469 148.022 91.6413L156.212 91.8728C155.871 93.6662 155.124 95.228 153.968 96.5583C152.825 97.8766 151.324 98.9041 149.463 99.6404C147.603 100.365 145.45 100.727 143.006 100.727Z" stroke="#3E3B3B" stroke-width="0.5"/>
<path d="M186.345 81.2012L178.155 81.4151C178.07 80.8449 177.839 80.3401 177.462 79.9008C177.085 79.4493 176.593 79.0991 175.985 78.8496C175.389 78.5883 174.696 78.4578 173.906 78.4578C172.872 78.4578 171.99 78.6595 171.261 79.0633C170.543 79.4673 170.191 80.0136 170.203 80.7024C170.191 81.2369 170.41 81.7002 170.86 82.092C171.322 82.484 172.142 82.7987 173.322 83.0362L178.721 84.034C181.518 84.5565 183.597 85.4236 184.959 86.6351C186.333 87.8464 187.026 89.45 187.038 91.4453C187.026 93.3219 186.454 94.955 185.324 96.3445C184.205 97.7341 182.673 98.8149 180.727 99.5869C178.782 100.347 176.556 100.727 174.052 100.727C170.051 100.727 166.895 99.9254 164.585 98.3221C162.287 96.7068 160.974 94.5452 160.645 91.8371L169.455 91.6233C169.65 92.6211 170.154 93.3812 170.969 93.9037C171.784 94.4264 172.823 94.6877 174.088 94.6877C175.231 94.6877 176.161 94.4799 176.879 94.0642C177.596 93.6484 177.961 93.0962 177.973 92.4074C177.961 91.7896 177.681 91.2968 177.134 90.9286C176.587 90.5485 175.729 90.2515 174.562 90.0378L169.674 89.1292C166.865 88.6304 164.774 87.7099 163.4 86.3678C162.026 85.0138 161.344 83.2917 161.357 81.2012C161.344 79.3723 161.843 77.8103 162.852 76.5157C163.862 75.2094 165.296 74.2116 167.157 73.5228C169.017 72.8338 171.212 72.4895 173.741 72.4895C177.535 72.4895 180.527 73.2673 182.715 74.8233C184.904 76.3672 186.114 78.4933 186.345 81.2012Z" stroke="#3E3B3B" stroke-width="0.5"/>
<path d="M208.271 72.8458V79.2593H190.596V72.8458H208.271ZM194.299 66.2895L203.474 63.7241L203.217 91.6056C203.217 92.1401 203.302 92.5736 203.474 92.9061C203.656 93.2268 203.916 93.4584 204.258 93.6009C204.598 93.7316 205.005 93.7969 205.48 93.7969C205.82 93.7969 206.179 93.7672 206.555 93.7079C206.945 93.6366 207.236 93.5771 207.431 93.5296L208.781 99.8186C208.356 99.9374 207.754 100.086 206.976 100.264C206.209 100.442 205.291 100.555 204.221 100.602C202.129 100.697 200.335 100.46 198.841 99.8899C197.357 99.3079 196.22 98.4051 195.43 97.1818C194.651 95.9585 194.274 94.4204 194.299 92.5676V66.2895Z" stroke="#3E3B3B" stroke-width="0.5"/>
<path d="M213.848 100.21V72.8457H222.768V100.21H213.848Z" stroke="#3E3B3B" stroke-width="0.5"/>
<path d="M238.39 84.604V100.21H229.472V72.8458H237.954V77.8698H238.263C238.884 76.1952 239.942 74.8826 241.436 73.9326C242.932 72.9705 244.714 72.4895 246.781 72.4895C248.75 72.4895 250.459 72.923 251.907 73.7901C253.366 74.6451 254.497 75.8447 255.3 77.3887C256.115 78.9208 256.514 80.7144 256.503 82.769V100.21H247.585V84.4793C247.596 82.959 247.2 81.7714 246.397 80.9162C245.608 80.0611 244.508 79.6336 243.096 79.6336C242.16 79.6336 241.334 79.8353 240.616 80.2391C239.911 80.6311 239.363 81.1954 238.975 81.9317C238.597 82.6682 238.404 83.559 238.39 84.604Z" stroke="#3E3B3B" stroke-width="0.5"/>
<path d="M276.111 111.042C273.449 111.042 271.17 110.68 269.272 109.956C267.374 109.231 265.886 108.24 264.803 106.98C263.72 105.721 263.07 104.296 262.852 102.705L271.297 102.242C271.455 102.8 271.747 103.287 272.171 103.702C272.61 104.118 273.175 104.439 273.868 104.664C274.573 104.89 275.401 105.003 276.349 105.003C277.845 105.003 279.078 104.647 280.051 103.934C281.037 103.233 281.53 102.004 281.53 100.246V95.436H281.219C280.866 96.2793 280.331 97.0333 279.615 97.6986C278.897 98.3636 278.003 98.8862 276.934 99.2664C275.876 99.6464 274.66 99.8364 273.285 99.8364C271.241 99.8364 269.369 99.3732 267.668 98.4469C265.977 97.5086 264.622 96.0595 263.599 94.0997C262.591 92.1281 262.085 89.5925 262.085 86.4926C262.085 83.2975 262.608 80.6669 263.655 78.6003C264.699 76.5217 266.068 74.9836 267.759 73.9859C269.461 72.9883 271.291 72.4895 273.249 72.4895C274.719 72.4895 275.978 72.7388 277.024 73.2378C278.082 73.7246 278.951 74.3541 279.632 75.1261C280.314 75.8982 280.829 76.6999 281.182 77.5312H281.437V72.8458H290.321V100.317C290.321 102.634 289.724 104.587 288.533 106.179C287.342 107.77 285.676 108.976 283.535 109.795C281.395 110.627 278.92 111.042 276.111 111.042ZM276.385 93.4941C277.468 93.4941 278.391 93.2149 279.157 92.6566C279.924 92.0984 280.514 91.2968 280.927 90.2515C281.341 89.2065 281.547 87.9534 281.547 86.4926C281.547 85.0078 281.341 83.731 280.927 82.6622C280.526 81.5814 279.935 80.7499 279.157 80.1679C278.391 79.5861 277.468 79.295 276.385 79.295C275.279 79.295 274.343 79.5918 273.577 80.1858C272.81 80.7796 272.227 81.6169 271.826 82.6977C271.436 83.7667 271.241 85.0316 271.241 86.4926C271.241 87.9534 271.442 89.2065 271.843 90.2515C272.245 91.2968 272.822 92.0984 273.577 92.6566C274.343 93.2149 275.279 93.4941 276.385 93.4941Z" stroke="#3E3B3B" stroke-width="0.5"/>
<path d="M297.72 100.374V63.7241H308.358V78.5417H308.894L320.681 63.7241H333.08L319.839 80.045L333.387 100.374H320.681L311.879 86.6306L308.358 90.9254V100.374H297.72Z" fill="#1893B4"/>
<path d="M347.953 63.7241V100.374H337.315V63.7241H347.953Z" fill="#1893B4"/>
<path d="M353.003 71.7414V63.7241H387.062V71.7414H375.275V100.374H364.79V71.7414H353.003Z" fill="#1893B4"/>
<path d="M297.72 100.374V63.7241H308.358V78.5417H308.894L320.681 63.7241H333.08L319.839 80.045L333.387 100.374H320.681L311.879 86.6306L308.358 90.9254V100.374H297.72Z" stroke="#1893B4" stroke-width="0.5"/>
<path d="M347.953 63.7241V100.374H337.315V63.7241H347.953Z" stroke="#1893B4" stroke-width="0.5"/>
<path d="M353.003 71.7414V63.7241H387.062V71.7414H375.275V100.374H364.79V71.7414H353.003Z" stroke="#1893B4" stroke-width="0.5"/>
<mask id="mask0_246_1193" style="mask-type:luminance" maskUnits="userSpaceOnUse" x="0" y="0" width="90" height="112">
<path d="M89.6371 0H0V112H89.6371V0Z" fill="white"/>
</mask>
<g mask="url(#mask0_246_1193)">
<path d="M30.5632 2.69751V3.46624C30.5632 15.1758 30.5356 26.8901 30.5815 38.5997C30.5952 41.6263 29.8744 44.3434 28.4052 46.959C19.3975 63.0051 10.4356 79.0708 1.47833 95.146C-2.70878 102.664 2.48837 111.976 10.8809 111.98C33.4967 111.995 56.1127 112.009 78.724 111.966C83.3655 111.956 86.7218 109.602 88.6684 105.26C89.9218 102.471 89.9171 99.5892 88.8703 96.7366C88.5949 96.7077 66.9387 57.1649 61.2227 46.9783C59.928 44.6673 59.0511 42.2789 59.0557 39.5716C59.0648 27.4897 59.0557 14.7987 59.0601 2.71201" fill="#E4F5F8"/>
<path d="M39.0433 55.7967C45.5304 55.4244 46.0217 66.9745 38.3223 65.8819C32.8727 65.1083 33.4144 56.1205 39.0433 55.7967Z" fill="#1893B4"/>
<path d="M48.1472 41.7373C50.5667 43.4053 49.249 48.235 45.769 47.945C40.2045 47.4858 42.8719 38.1066 48.1472 41.7373Z" fill="#1893B4"/>
<path d="M40.5674 33.3881C39.0843 31.2802 42.0963 28.8048 43.6251 30.6951C45.5717 33.1027 42.11 35.5781 40.5674 33.3881Z" fill="#1893B4"/>
<path d="M10.8855 111.981C33.5014 111.995 56.1173 112.01 78.7287 111.966C83.3702 111.957 86.7263 109.602 88.673 105.261C89.9264 102.471 89.9218 99.5895 88.875 96.7371C88.719 96.7226 81.7404 84.0944 74.6655 71.2728C74.5691 71.1569 74.4726 71.0312 74.3763 70.9151C64.3034 58.7413 56.5719 71.7225 48.1608 76.5474C41.0216 80.6425 32.3812 81.9913 24.8287 78.1623C20.784 76.1123 17.2442 70.6056 12.9148 74.6378C9.09961 81.474 5.28896 88.3055 1.47833 95.1465C-2.70878 102.664 2.48838 111.976 10.881 111.981H10.8855Z" fill="#1893B4"/>
<path d="M59.5425 0H30.0997C28.3247 0 26.8859 1.51519 26.8859 3.38427V4.0853C26.8859 5.95438 28.3247 7.46957 30.0997 7.46957H59.5425C61.3175 7.46957 62.7564 5.95438 62.7564 4.0853V3.38427C62.7564 1.51519 61.3175 0 59.5425 0Z" fill="#E4F5F8"/>
</g>
</g>
<defs>
<clipPath id="clip0_246_1193">
<rect width="388" height="112" fill="white"/>
</clipPath>
</defs>
</svg>
